<?xml version="1.0" standalone="no"?>
<!DOCTYPE svg PUBLIC "-//W3C//DTD SVG 20010904//EN"
 "http://www.w3.org/TR/2001/REC-SVG-20010904/DTD/svg10.dtd">
<svg version="1.0" xmlns="http://www.w3.org/2000/svg"
 width="260.000000pt" height="260.000000pt" viewBox="0 0 260.000000 260.000000"
 preserveAspectRatio="xMidYMid meet">
<metadata>
Created by potrace 1.11, written by Peter Selinger 2001-2013
</metadata>
<g transform="translate(0.000000,260.000000) scale(0.100000,-0.100000)"
fill="#000000" stroke="none">
<path d="M1165 2593 c-660 -76 -1163 -633 -1163 -1288 0 -564 356 -1061 889
-1239 42 -14 93 -28 113 -31 l36 -6 0 40 c2 156 1 211 -4 219 -3 5 -27 15 -53
21 -118 30 -300 142 -413 254 -152 150 -245 324 -289 539 -26 126 -21 320 13
451 123 479 558 803 1050 782 55 -2 112 -7 126 -10 28 -5 92 -19 100 -20 29
-5 132 -46 200 -80 173 -87 330 -234 428 -402 101 -172 138 -320 136 -543 -1
-138 -22 -261 -60 -349 -43 -100 -60 -132 -108 -206 -118 -181 -313 -333 -517
-405 l-84 -29 -3 -131 c-3 -152 -11 -145 120 -104 434 137 763 481 877 918 30
114 35 164 35 326 0 167 -6 216 -48 375 -15 54 -80 205 -118 270 -235 406
-664 654 -1128 652 -58 0 -118 -2 -135 -4z"/>
<path d="M1190 2073 c-241 -38 -456 -189 -574 -404 -34 -61 -80 -179 -71 -179
3 0 0 -12 -5 -26 -6 -14 -12 -57 -15 -95 l-5 -69 193 0 193 0 12 62 c24 130
102 233 222 290 59 29 74 32 160 32 87 0 101 -3 161 -32 150 -72 231 -206 226
-371 -5 -143 -91 -271 -225 -334 -63 -29 -76 -32 -212 -37 l-144 -5 -1 -273
c0 -151 3 -278 6 -283 14 -23 281 -31 354 -11 l30 8 0 99 0 98 52 18 c264 90
458 307 517 579 21 97 14 286 -14 374 -86 271 -278 461 -542 536 -69 20 -252
33 -318 23z"/>
<path d="M1108 261 c-2 -9 -3 -68 -3 -131 l1 -115 40 -7 c45 -8 325 -5 340 4
5 4 9 63 9 135 0 108 -3 127 -15 124 -32 -8 -277 -9 -322 -2 -38 6 -47 5 -50
-8z"/>
</g>
</svg>
